<svg width="86" height="67" viewBox="0 0 86 67" fill="none" xmlns="http://www.w3.org/2000/svg">
<path d="M42.7718 3.90656L1.60254 27.6739L12.8868 34.189L23.1677 40.1243L27.4547 42.6001L39.7357 49.6886L43.0259 51.591L46.1597 49.7798L58.4994 42.6587L62.6235 40.2742L72.9109 34.3389L84.1951 27.8237L42.7718 3.90656ZM46.1206 29.6089L46.1727 38.9255V39.1405H39.7488L39.6967 29.5958H39.625L23.1807 29.5633V28.2537L23.1612 25.8561H27.3048L39.6771 25.8887L39.638 18.7481L39.625 16.3505L46.0489 16.3636L46.062 18.8393L46.1011 25.8952L58.33 25.9213H62.617L62.63 28.4036V29.6349L46.1206 29.6089Z" stroke="#B9B9B9" stroke-width="0.5" stroke-linecap="round" stroke-linejoin="round"/>
<path d="M46.1141 38.9256V39.1406L39.7488 39.1341L39.6967 29.5959H39.625V29.3809L46.0489 29.3939L46.1011 38.9256H46.1141Z" stroke="#B9B9B9" stroke-width="0.5" stroke-linecap="round" stroke-linejoin="round"/>
<path d="M46.1206 29.6088L46.1727 38.9255H46.1141L46.1011 25.8952L58.33 25.9213L62.617 25.9278L62.63 28.4035L62.6365 29.6349L46.1206 29.6088Z" stroke="#B9B9B9" stroke-width="0.5" stroke-linecap="round" stroke-linejoin="round"/>
<path d="M39.6771 25.8887L39.625 29.3808V29.5958L23.1807 29.5632L23.1742 28.2537L23.1611 25.8561L27.3048 25.8626L39.6771 25.8887Z" stroke="#B9B9B9" stroke-width="0.5" stroke-linecap="round" stroke-linejoin="round"/>
<path d="M46.1141 38.9256H46.1011L46.0489 29.3939L39.625 29.3809L39.6771 25.8888L39.638 18.7482L39.625 16.3506L46.0489 16.3636L46.062 18.8394L46.1011 25.8953L46.1141 38.9256Z" stroke="#B9B9B9" stroke-width="0.5" stroke-linecap="round" stroke-linejoin="round"/>
<path d="M84.1951 27.8236V40.8539L43.0259 64.6212V51.5909L46.1597 49.7797L58.4994 42.6586L62.6235 40.2741L72.9109 34.3388L84.1951 27.8236Z" stroke="#B9B9B9" stroke-width="0.5" stroke-linecap="round" stroke-linejoin="round"/>
<path d="M43.0259 51.5909V64.6212L1.60254 40.7041V27.6738L12.8868 34.1889L23.1677 40.1243L27.4547 42.6L39.7357 49.6885L43.0259 51.5909Z" stroke="#B9B9B9" stroke-width="0.5" stroke-linecap="round" stroke-linejoin="round"/>
</svg>
