<svg width="86" height="68" viewBox="0 0 86 68" fill="none" xmlns="http://www.w3.org/2000/svg">
<path d="M43.1201 51.8664V65.1998L1.36017 41.0931V27.7598L12.9068 34.4264L31.4668 45.1398L36.1068 47.8198L43.1201 51.8664Z" stroke="#B9B9B9" stroke-width="0.5" stroke-linecap="round" stroke-linejoin="round"/>
<path d="M84.6267 27.9072V41.2406L43.1201 65.2006V51.8672L50.0201 47.8872L54.6334 45.2206L73.08 34.5739L84.6267 27.9072Z" stroke="#B9B9B9" stroke-width="0.5" stroke-linecap="round" stroke-linejoin="round"/>
<path d="M42.8601 3.7998L1.36017 27.7665L12.9068 34.4332L31.4668 45.1465L36.1068 47.8265L43.1201 51.8732L50.0201 47.8932L54.6335 45.2264L73.0801 34.5798L84.6268 27.9131L42.8601 3.7998ZM54.5735 34.5465L52.2868 35.8664L49.9135 34.4998L47.6201 33.1731L43.0068 30.5132L42.9735 30.5331L38.3668 33.1864L36.0668 34.5132L33.7801 35.8332L31.4135 34.4665L29.1401 33.1531L33.6935 30.5265L38.3668 27.8332L33.6935 25.1332L31.3468 23.7798L29.0868 22.4731L33.6935 19.8132L35.9601 21.1198L42.9735 25.1665L49.8801 21.1864L52.2001 19.8465L56.8401 22.5198L54.5135 23.8598L52.2001 25.1998L47.6201 27.8465L52.2001 30.4932L56.9001 33.2065L54.5735 34.5465Z" stroke="#B9B9B9" stroke-width="0.5" stroke-linecap="round" stroke-linejoin="round"/>
<path d="M38.3666 27.8271V33.1805L36.0666 34.5138L33.78 35.8271L31.4133 34.4671L29.14 33.1471L33.6933 30.5205L38.3666 27.8271Z" stroke="#B9B9B9" stroke-width="0.5" stroke-linecap="round" stroke-linejoin="round"/>
<path d="M33.6935 19.8066V25.1333L31.3468 23.7733L29.0868 22.4733L33.6935 19.8066Z" stroke="#B9B9B9" stroke-width="0.5" stroke-linecap="round" stroke-linejoin="round"/>
<path d="M42.9735 25.16V30.5266L38.3668 33.18V27.8266L33.6935 25.1333V19.8066L35.9601 21.1133L42.9735 25.16Z" stroke="#B9B9B9" stroke-width="0.5" stroke-linecap="round" stroke-linejoin="round"/>
<path d="M56.84 22.5124L54.5133 23.8524L52.1999 25.1924V19.8457L56.84 22.5124Z" stroke="#B9B9B9" stroke-width="0.5" stroke-linecap="round" stroke-linejoin="round"/>
<path d="M52.2001 19.8457V25.1924L47.6201 27.8457V33.1724L43.0068 30.5124L42.9734 30.5257V25.159L49.8801 21.179L52.2001 19.8457Z" stroke="#B9B9B9" stroke-width="0.5" stroke-linecap="round" stroke-linejoin="round"/>
<path d="M56.9001 33.2L54.5734 34.5467L52.2868 35.86L49.9135 34.4933L47.6201 33.1733V27.8467L52.2001 30.4867L56.9001 33.2Z" stroke="#B9B9B9" stroke-width="0.5" stroke-linecap="round" stroke-linejoin="round"/>
</svg>
