<svg width="100" height="57" viewBox="0 0 100 57" fill="none" xmlns="http://www.w3.org/2000/svg">
<path d="M50.967 12.3677V28.2123C50.8797 28.3073 50.7926 28.4103 50.7132 28.5054C50.5546 28.3311 50.3959 28.1489 50.2532 27.9667C50.1659 27.8637 50.0867 27.7606 50.0074 27.6576C49.2857 26.7228 48.7147 25.7643 48.3023 24.7978L47.8105 24.5126V17.525C48.0564 16.6219 48.4529 15.7505 49.0081 14.9028C49.5633 14.063 50.2135 13.2154 50.967 12.3677Z" stroke="#B9B9B9" stroke-width="0.5" stroke-linecap="round" stroke-linejoin="round"/>
<path d="M38.0637 39.8261V55.6707L1.53418 34.6053V18.7607L13.6367 25.7403L15.2704 26.683L38.0637 39.8261Z" stroke="#B9B9B9" stroke-width="0.5" stroke-linecap="round" stroke-linejoin="round"/>
<path d="M98.8939 20.7255V36.5306C98.9098 39.9451 96.824 42.8525 92.6365 45.2688C88.4569 47.6851 83.4049 48.8814 77.4885 48.8735C71.5641 48.8735 66.5042 47.6456 62.2929 45.2134C58.0816 42.7892 55.9641 39.8658 55.9482 36.4513V20.6067C55.9641 23.6251 57.6217 26.2633 60.9209 28.5053C61.3492 28.8063 61.8092 29.0915 62.2929 29.3688C66.5042 31.801 71.5641 33.021 77.4885 33.0289C78.5433 33.0289 79.5664 32.9972 80.5657 32.918C82.9608 32.7358 85.2052 32.3396 87.2831 31.7137C89.2024 31.1433 90.9868 30.3749 92.6365 29.4242C93.0885 29.1628 93.5168 28.9013 93.9133 28.6241C97.2364 26.382 98.8939 23.7598 98.8939 20.7255Z" stroke="#B9B9B9" stroke-width="0.5" stroke-linecap="round" stroke-linejoin="round"/>
<path d="M47.8103 17.5252V24.5127L25.7388 11.7815V4.802L47.8103 17.5252Z" stroke="#B9B9B9" stroke-width="0.5" stroke-linecap="round" stroke-linejoin="round"/>
<path d="M50.9668 12.3677C50.2134 13.2154 49.563 14.063 49.0079 14.9028C48.4527 15.7505 48.0562 16.6219 47.8103 17.525L25.7388 4.80186L31.79 1.30811L50.9668 12.3677Z" stroke="#B9B9B9" stroke-width="0.5" stroke-linecap="round" stroke-linejoin="round"/>
<path d="M53.4179 30.9771L50.1663 32.8467L48.3977 31.8247L47.8108 31.4919L27.373 19.7035L25.7392 18.7609L13.6367 11.7813L19.688 8.2876L25.7392 11.7813L47.8108 24.5125L48.3026 24.7977C48.715 25.7642 49.286 26.7228 50.0077 27.6576C50.087 27.7606 50.1662 27.8636 50.2535 27.9666C50.3962 28.1488 50.5549 28.331 50.7135 28.5053C51.467 29.353 52.371 30.1769 53.4179 30.9771Z" stroke="#B9B9B9" stroke-width="0.5" stroke-linecap="round" stroke-linejoin="round"/>
<path d="M92.5482 11.9239C88.329 9.49178 83.2691 8.27175 77.3529 8.26383C71.4285 8.24798 66.3766 9.45225 62.197 11.8686C58.0095 14.2769 55.9237 17.1923 55.9475 20.6068C55.9633 23.6252 57.6209 26.2634 60.9201 28.5054C61.3484 28.8064 61.8084 29.0916 62.2922 29.3689C66.5035 31.8011 71.5634 33.021 77.4877 33.0289C78.5425 33.0289 79.5654 32.9972 80.5647 32.918C82.9598 32.7358 85.2042 32.3397 87.2821 31.7138C89.2014 31.1434 90.9858 30.375 92.6354 29.4243C93.0875 29.1628 93.5158 28.9014 93.9123 28.6241C97.2354 26.3821 98.8929 23.7598 98.8929 20.7256V20.6861C98.8691 17.2716 96.7595 14.3482 92.5482 11.9239ZM71.3729 25.883C70.9685 26.1207 70.4689 26.2317 69.8582 26.2317C69.2475 26.2317 68.7479 26.1128 68.3434 25.883C68.0738 25.7246 67.8992 25.5503 67.804 25.3522C67.7565 25.2413 67.7248 25.1225 67.7248 25.0036C67.7248 24.6551 67.931 24.362 68.3276 24.1323C68.732 23.8946 69.2396 23.7836 69.8424 23.7836C70.4451 23.7836 70.9605 23.9025 71.365 24.1323C71.5553 24.2432 71.6982 24.3619 71.7934 24.4966C71.9123 24.6551 71.9757 24.8215 71.9757 25.0116C71.9757 25.3602 71.7774 25.6533 71.3729 25.883ZM84.9742 18.0399L75.9174 23.2687L72.8719 21.5099L84.9742 14.5304L88.0117 16.2891L84.9742 18.0399Z" stroke="#B9B9B9" stroke-width="0.5" stroke-linecap="round" stroke-linejoin="round"/>
<path d="M71.976 25.0116C71.976 25.3602 71.7778 25.6534 71.3733 25.8831C70.9688 26.1208 70.4693 26.2318 69.8586 26.2318C69.2479 26.2318 68.7482 26.1128 68.3437 25.8831C68.0741 25.7247 67.8996 25.5504 67.8044 25.3523C67.7568 25.2414 67.7251 25.1226 67.7251 25.0037C67.7251 24.6551 67.9313 24.362 68.3278 24.1323C68.7323 23.8946 69.24 23.7837 69.8427 23.7837C70.4455 23.7837 70.9609 23.9025 71.3654 24.1323C71.5557 24.2432 71.6985 24.362 71.7936 24.4967C71.9126 24.6551 71.976 24.8215 71.976 25.0116Z" stroke="#B9B9B9" stroke-width="0.5" stroke-linecap="round" stroke-linejoin="round"/>
<path d="M84.9752 14.5303V18.0398L75.9181 23.2685L72.8726 21.5097L84.9752 14.5303Z" stroke="#B9B9B9" stroke-width="0.5" stroke-linecap="round" stroke-linejoin="round"/>
<path d="M88.0126 16.289L84.9751 18.0398V14.5303L88.0126 16.289Z" stroke="#B9B9B9" stroke-width="0.5" stroke-linecap="round" stroke-linejoin="round"/>
<path d="M44.1147 36.3403V52.1849L38.0635 55.6707V39.8261L42.4811 37.2831L44.1147 36.3403Z" stroke="#B9B9B9" stroke-width="0.5" stroke-linecap="round" stroke-linejoin="round"/>
<path d="M44.115 36.3406L42.4813 37.2834L38.0637 39.8265L15.2704 26.6834L13.6367 25.7405L1.53418 18.7611L7.58547 15.2673L13.6367 18.7611L44.115 36.3406Z" stroke="#B9B9B9" stroke-width="0.5" stroke-linecap="round" stroke-linejoin="round"/>
<path d="M50.1663 32.8467V48.6913L44.115 45.2054V36.3404L13.6367 18.7608V11.7812L25.7392 18.7608L27.373 19.7035L47.8108 31.4919L48.3977 31.8247L50.1663 32.8467Z" stroke="#B9B9B9" stroke-width="0.5" stroke-linecap="round" stroke-linejoin="round"/>
<path d="M53.4181 30.9773V46.8219L50.1665 48.6915V32.8469L53.4181 30.9773Z" stroke="#B9B9B9" stroke-width="0.5" stroke-linecap="round" stroke-linejoin="round"/>
</svg>
