<svg width="18" height="18" viewBox="0 0 18 18" fill="none" xmlns="http://www.w3.org/2000/svg">
<path d="M7.92336 15.7451L7.92282 15.7448L4.06008 13.5108C3.2496 12.9649 2.94852 12.723 2.79884 12.4625C2.65701 12.2157 2.6225 11.9002 2.6225 11.0326V6.96008C2.6225 6.0921 2.65696 5.77793 2.79588 5.53436C2.94191 5.27834 3.23478 5.04276 4.03032 4.50426L7.92948 2.25589C7.92952 2.25586 7.92957 2.25584 7.92962 2.25581C8.20909 2.09494 8.59478 2.00195 9.00375 2.00195C9.41259 2.00195 9.79817 2.09489 10.0776 2.25567C10.0778 2.25574 10.0779 2.25582 10.078 2.25589L13.9399 4.48937C14.7514 5.03592 15.0521 5.27577 15.2017 5.53478C15.3429 5.7793 15.3775 6.09211 15.3775 6.96008V11.0401C15.3775 11.9081 15.343 12.2222 15.2041 12.4658C15.0581 12.7218 14.7652 12.9574 13.9697 13.4959L10.0702 15.7444L10.0702 15.7444L10.0653 15.7473C9.79392 15.9079 9.40787 16.0001 9 16.0001C8.59332 16.0001 8.20494 15.9084 7.92336 15.7451ZM6.0625 9.00008C6.0625 10.6187 7.38136 11.9376 9 11.9376C10.6186 11.9376 11.9375 10.6187 11.9375 9.00008C11.9375 7.38143 10.6186 6.06258 9 6.06258C7.38136 6.06258 6.0625 7.38143 6.0625 9.00008Z" stroke="currentColor"/>
</svg>
