<svg width="68" height="68" viewBox="0 0 68 68" fill="none" xmlns="http://www.w3.org/2000/svg">
<path d="M42.8451 22.3396L47.8831 19.4276C44.037 17.2115 39.3985 16.097 33.9612 16.0841C28.5303 16.0777 23.8982 17.1729 20.0779 19.3826C18.1453 20.4971 16.7087 21.7534 15.7681 23.1514C15.272 23.8858 14.9113 24.6266 14.6794 25.3803C14.4668 26.0568 14.3702 26.7462 14.3702 27.4355L11.1555 27.1649L1.85266 26.3918C2.04593 24.1757 2.93504 22.0174 4.50052 19.9173C6.07244 17.8171 8.3014 15.9295 11.2004 14.2545C17.501 10.6146 25.0772 8.80431 33.9225 8.82364C42.7742 8.83652 50.3634 10.6791 56.709 14.3383L61.7469 11.4264L64.9746 24.2015L42.8451 22.3396Z" stroke="#B9B9B9" stroke-width="0.5" stroke-linecap="round" stroke-linejoin="round"/>
<path d="M66.1986 28.4791C66.0698 29.8964 65.6639 31.2879 64.9746 32.6601C64.749 33.1175 64.4849 33.5685 64.195 34.013C63.9953 34.3287 63.7827 34.6379 63.5508 34.9471C63.0676 35.5914 62.5201 36.2227 61.9081 36.8283C60.5488 38.1812 58.8802 39.431 56.8959 40.5841C56.8831 40.5906 56.8637 40.6035 56.8508 40.6099C55.7299 41.2541 54.5703 41.8468 53.3721 42.3686C47.8188 44.836 41.4022 46.0537 34.1288 46.0408C30.9979 46.0343 28.0215 45.8024 25.2062 45.3321C20.0588 44.4946 15.4396 42.8904 11.3423 40.5261L6.30451 43.4381L5.32526 39.5663L3.8564 33.736L3.0769 30.663L6.14345 30.9207L14.3703 31.61L20.3488 32.119L25.2062 32.5248L20.1619 35.4367C21.7081 36.3322 23.3959 37.0473 25.2062 37.582C27.8862 38.3744 30.8432 38.7739 34.0837 38.7803C39.3986 38.7932 43.9405 37.7431 47.7092 35.6365C47.7994 35.5849 47.8895 35.5398 47.9733 35.4883C49.906 34.3673 51.3426 33.1111 52.2832 31.7195C53.2238 30.3216 53.6877 28.8914 53.6812 27.429L62.7261 28.1891L64.9746 28.376L66.1986 28.4791Z" stroke="#B9B9B9" stroke-width="0.5" stroke-linecap="round" stroke-linejoin="round"/>
<path d="M66.1986 28.479V41.3636C65.9989 43.5733 65.1163 45.7315 63.5509 47.8317C61.9789 49.9319 59.75 51.8194 56.8509 53.4944C50.5504 57.1343 42.9742 58.9447 34.1289 58.9254C25.2772 58.9125 17.6816 57.0699 11.3424 53.4107V40.5261C15.4397 42.8904 20.0589 44.4946 25.2063 45.3321C28.0215 45.8024 30.998 46.0343 34.1289 46.0407C41.4023 46.0536 47.8189 44.836 53.3721 42.3686C54.5704 41.8467 55.73 41.254 56.8509 40.6098C56.8638 40.6098 56.8832 40.5905 56.8961 40.5841C58.8803 39.4309 60.5489 38.1811 61.9082 36.8282C62.5202 36.2226 63.0677 35.5913 63.5509 34.9471C63.7828 34.6379 63.9954 34.3286 64.1951 34.0129C64.485 33.5684 64.7491 33.1175 64.9746 32.6601C65.6639 31.2879 66.0697 29.8963 66.1986 28.479Z" stroke="#B9B9B9" stroke-width="0.5" stroke-linecap="round" stroke-linejoin="round"/>
<path d="M64.974 24.2015V28.376L62.7259 28.1893L53.681 27.4291C53.6874 28.8915 53.2235 30.3217 52.2829 31.7197C51.3423 33.1112 49.9057 34.3675 47.973 35.4884C47.8893 35.54 47.7991 35.585 47.7089 35.6366L42.845 35.2242V22.3396L64.974 24.2015Z" stroke="#B9B9B9" stroke-width="0.5" stroke-linecap="round" stroke-linejoin="round"/>
<path d="M47.8828 19.4276L42.8448 22.3395V30.1733C40.1713 29.3745 37.2078 28.9751 33.9609 28.9686C28.6588 28.9622 24.1171 30.0058 20.3483 32.1189L14.3699 31.61V27.4354C14.3699 26.746 14.4665 26.0567 14.6791 25.3803C14.911 24.6265 15.2717 23.8856 15.7678 23.1512C16.7084 21.7532 18.145 20.497 20.0777 19.3825C23.898 17.1728 28.53 16.0776 33.9609 16.084C39.3982 16.0969 44.0367 17.2114 47.8828 19.4276Z" stroke="#B9B9B9" stroke-width="0.5" stroke-linecap="round" stroke-linejoin="round"/>
<path d="M14.3702 27.4355V31.6101L6.14334 30.9208L3.0768 30.6631V39.3795L1.85266 39.2765V26.3918L11.1555 27.1649L14.3702 27.4355Z" stroke="#B9B9B9" stroke-width="0.5" stroke-linecap="round" stroke-linejoin="round"/>
<path d="M25.2059 32.5249V37.5821C23.3956 37.0474 21.7078 36.3323 20.1616 35.4368L25.2059 32.5249Z" stroke="#B9B9B9" stroke-width="0.5" stroke-linecap="round" stroke-linejoin="round"/>
<path d="M11.3421 40.5261V53.4107L6.30432 56.3227V43.438L11.3421 40.5261Z" stroke="#B9B9B9" stroke-width="0.5" stroke-linecap="round" stroke-linejoin="round"/>
<path d="M6.30451 43.4382V56.3228L3.0769 43.5477V30.6631L3.8564 33.7361L5.32526 39.5664L6.30451 43.4382Z" stroke="#B9B9B9" stroke-width="0.5" stroke-linecap="round" stroke-linejoin="round"/>
</svg>
